# AST/ASF file generated using VICON BodyLanguage
# -----------------------------------------------
:version 1.10
:name VICON
:units
  mass 1.0
  length 0.45
  angle deg
:documentation
   .ast/.asf automatically generated from VICON data using
   VICON BodyBuilder and BodyLanguage model FoxedUp or BRILLIANT.MOD
:root
   order TX TY TZ RX RY RZ
   axis XYZ
   position 0 0 0  
   orientation 0 0 0 
:bonedata
  begin
     id 1 
     name lhipjoint
     direction 0.682418 -0.694059 0.22932 
     length 2.25561 
     axis 0 0 0  XYZ
  end
  begin
     id 2 
     name lfemur
     direction 0.34202 -0.939693 0  
     length 6.96448  
     axis 0 0 20  XYZ
    dof rx ry rz
    limits (-160.0 20.0)
           (-70.0 70.0)
           (-60.0 70.0)
  end
  begin
     id 3 
     name ltibia
     direction 0.34202 -0.939693 0   
     length 6.88553   
     axis 0 0 20   XYZ
    dof rx
    limits (-10.0 170.0)
  end
  begin
     id 4 
     name lfoot
     direction 0.0723587 -0.198804 0.977364   
     length 1.88518   
     axis -90 7.62852e-016 20   XYZ
    dof rx rz
    limits (-45.0 90.0)
           (-70.0 20.0)
  end
  begin
     id 5 
     name ltoes
     direction 1.53558e-011 -4.21962e-011 1   
     length 0.952124   
     axis -90 7.62852e-016 20   XYZ
    dof rx
    limits (-90.0 20.0)
  end
  begin
     id 6 
     name rhipjoint
     direction -0.657603 -0.71533 0.236348   
     length 2.18854  
     axis 0 0 0  XYZ 
  end
  begin
     id 7 
     name rfemur
     direction -0.34202 -0.939693 0   
     length 6.86686   
     axis 0 0 -20   XYZ
    dof rx ry rz
    limits (-160.0 20.0)
           (-70.0 70.0)
           (-70.0 60.0)
  end
  begin
     id 8 
     name rtibia
     direction -0.34202 -0.939693 0   
     length 6.59503   
     axis 0 0 -20   XYZ
    dof rx
    limits (-10.0 170.0)
 end
 begin
     id 9 
     name rfoot
     direction -0.101977 -0.280179 0.954516   
     length 1.93723  
     axis -90 -7.62852e-016 -20   XYZ
    dof rx rz
    limits (-45.0 90.0)
           (-20.0 70.0)
  end
  begin
     id 10 
     name rtoes
     direction -1.53564e-011 -4.21897e-011 1   
     length 0.970315   
     axis -90 -7.62852e-016 -20   XYZ
    dof rx
    limits (-90.0 20.0)
  end
  begin
     id 11 
     name lowerback
     direction -0.0339559 0.999421 -0.00235966   
     length 1.88543   
     axis 0 0 0   XYZ
    dof rx ry rz
    limits (-20.0 45.0)
           (-30.0 30.0)
           (-30.0 30.0)
  end
  begin
     id 12 
     name upperback
     direction 0.00401003 0.999739 0.0224689   
     length 1.8856   
     axis 0 0 0   XYZ
    dof rx ry rz
    limits (-20.0 45.0)
           (-30.0 30.0)
           (-30.0 30.0)
  end
  begin
     id 13 
     name thorax
     direction 0.0198619 0.999546 0.0226536   
     length 1.88352   
     axis 0 0 0   XYZ
    dof rx ry rz
    limits (-20.0 45.0)
           (-30.0 30.0)
           (-30.0 30.0)
  end
  begin
     id 14 
     name lowerneck
     direction -0.0461848 0.998632 0.0245198   
     length 1.34895   
     axis 0 0 0   XYZ
    dof rx ry rz
    limits (-20.0 45.0)
           (-30.0 30.0)
           (-30.0 30.0)
  end
  begin
     id 15 
     name upperneck
     direction -0.0180627 0.994724 -0.100984   
     length 1.35214   
     axis 0 0 0   XYZ
    dof rx ry rz
    limits (-20.0 45.0)
           (-30.0 30.0)
           (-30.0 30.0)
  end
  begin
     id 16
     name head
     direction -0.00374772 0.999293 -0.037403  
     length 1.3568  
     axis 0 0 0   XYZ
    dof rx ry rz
    limits (-20.0 45.0)
           (-30.0 30.0)
           (-30.0 30.0)
  end
  begin
     id 17 
     name lclavicle
     direction 0.971773 0.191119 0.138311  
     length 2.84954  
     axis 0 0 0   XYZ
    dof ry rz
    limits (-20.0 10.0)
           (0.0 20.0)
  end
  begin
     id 18 
     name lhumerus
     direction 1 -4.4897e-011 -2.43761e-027   
     length 4.40919   
     axis 180 -30 -90   XYZ
    dof rx ry rz
    limits (-60.0 90.0)
           (-90.0 90.0)
           (-90.0 90.0)
  end
  begin
     id 19
     name lradius
     direction 1 -4.4896e-011 -9.1621e-027   
     length 3.03857   
     axis 180 -30 -90   XYZ
    dof rx
    limits (-10.0 170.0)
  end
  begin
     id 20
     name lwrist
     direction 1 -4.4896e-011 -1.41363e-026   
     length 1.51928   
     axis 1.07133e-014 90 90   XYZ
    dof ry
    limits (-180.0 0.0)
 end
  begin
     id 21 
     name lhand
     direction 1 -4.48978e-011 -2.82725e-026   
     length 0.523208   
     axis 1.80403e-014 90 90   XYZ
    dof rx rz
    limits (-90.0 90.0)
           (-45.0 45.0)
  end
  begin
     id 22 
     name lfingers
     direction 1 -4.48977e-011 -5.6545e-026   
     length 0.421824   
     axis 3.60806e-014 90 90   XYZ
    dof rx
    limits (0.0 90.0)
  end
  begin
     id 23
     name lthumb
     direction 0.707107 -6.34962e-011 0.707107   
     length 0.605657   
     axis -90 45 2.85299e-015   XYZ
    dof rx rz
    limits (-45.0 45.0)
           (-45.0 45.0)
  end
  begin
     id 24 
     name rclavicle
     direction -0.957247 0.24311 0.156766   
     length 3.12406  
     axis 0 0 0   XYZ 
    dof ry rz
    limits (-10.0 20.0)
           (-20.0 0.0)
  end
  begin
     id 25 
     name rhumerus
     direction -1 -4.48964e-011 -1.70632e-027  
     length 4.61969   
     axis 180 30 90   XYZ
    dof rx ry rz
    limits (-90.0 60.0)
           (-90.0 90.0)
           (-90.0 90.0)
  end
  begin
     id 26 
     name rradius
     direction -1 -4.48966e-011 -6.60395e-027   
     length 3.09382   
     axis 180 30 90   XYZ
    dof rx
    limits (-10.0 170.0)
  end
  begin
     id 27 
     name rwrist
     direction -1 -4.48963e-011 -1.41363e-026   
     length 1.54691   
     axis 1.07133e-014 -90 -90   XYZ
    dof ry
    limits (-180.0 0.0)
  end
  begin
     id 28
     name rhand
     direction -1 -4.49013e-011 -2.82725e-026   
     length 0.500896   
     axis 1.80403e-014 -90 -90   XYZ
    dof rx rz
    limits (-90.0 90.0)
           (-45.0 45.0)
  end
  begin
     id 29
     name rfingers
     direction -1 -4.48902e-011 -5.6545e-026   
     length 0.403835   
     axis 3.60806e-014 -90 -90   XYZ
    dof rx
    limits (0.0 90.0)
  end
  begin
     id 30
     name rthumb
     direction -0.707107 -6.34953e-011 0.707107   
     length 0.579829   
     axis -90 -45 -2.85299e-015   XYZ
    dof rx rz
    limits (-45.0 45.0)
           (-45.0 45.0)
  end
:hierarchy
  begin
    root lhipjoint rhipjoint lowerback
    lhipjoint lfemur
    lfemur ltibia
    ltibia lfoot
    lfoot ltoes
    rhipjoint rfemur
    rfemur rtibia
    rtibia rfoot
    rfoot rtoes
    lowerback upperback
    upperback thorax
    thorax lowerneck lclavicle rclavicle
    lowerneck upperneck
    upperneck head
    lclavicle lhumerus
    lhumerus lradius
    lradius lwrist
    lwrist lhand lthumb
    lhand lfingers
    rclavicle rhumerus
    rhumerus rradius
    rradius rwrist
    rwrist rhand rthumb
    rhand rfingers
  end

#!OML:ASF E:\madness\Project 1\Capture day 1\Session 1\Female1.ASF
:FULLY-SPECIFIED
:DEGREES
1141
root 12.0319 16.4208 -2.24754 -355.876 -58.8911 365.484
lowerback -3.66164 3.89158 -4.8841
upperback -4.50165 5.16599 -1.97305
thorax -2.85285 2.66695 0.73255
lowerneck -0.802916 -4.25922 -2.88335
upperneck 16.5071 -5.94432 0.855414
head 5.20989 -3.10749 0.45008
rclavicle 2.84511e-014 2.26615e-014
rhumerus -55.6558 -3.39929 -65.2551
rradius 69.8166
rwrist -2.29118
rhand -15.4925 -44.3266
rfingers 7.12502
rthumb 10.6897 -74.0347
lclavicle 2.84511e-014 2.26615e-014
lhumerus -72.8812 7.8723 66.5974
lradius 85.1634
lwrist -1.40053
lhand -30.0194 -15.5755
lfingers 7.12502
lthumb -3.33616 14.3781
rfemur -12.1491 4.36708 19.4785
rtibia 14.0822
rfoot -21.7234 -32.7455
rtoes 27.4749
lfemur -20.4758 -13.6684 -8.65228
ltibia 50.3293
lfoot -6.00479 5.47988
ltoes 19.6885
1142
root 12.0864 16.4207 -2.21289 -355.686 -58.3907 365.279
lowerback -3.87373 4.02127 -4.76469
upperback -4.36515 5.35896 -1.97562
thorax -2.58983 2.75514 0.688892
lowerneck -0.693094 -4.29244 -3.05511
upperneck 16.3091 -6.04307 1.32821
head 5.15148 -3.13552 0.624319
rclavicle -3.3607e-015 -2.78299e-014
rhumerus -55.4769 -3.83047 -64.8113
rradius 70.143
rwrist -2.32688
rhand -15.0099 -43.9978
rfingers 7.12502
rthumb 11.1552 -73.6813
lclavicle -3.3607e-015 -2.78299e-014
lhumerus -72.6467 7.55109 66.5956
lradius 85.6551
lwrist -0.322442
lhand -30.9622 -15.1485
lfingers 7.12502
lthumb -4.24666 14.7889
rfemur -12.2754 4.16745 19.3331
rtibia 14.2253
rfoot -21.9813 -32.608
rtoes 27.7409
lfemur -20.0957 -14.017 -8.41336
ltibia 49.131
lfoot -5.72024 5.08758
ltoes 20.0186
1143
root 12.1375 16.4186 -2.17808 -355.482 -57.9339 365.05
lowerback -4.11565 4.01879 -4.73518
upperback -4.29393 5.37729 -1.83477
thorax -2.39226 2.76273 0.839748
lowerneck -0.872842 -4.39671 -3.87873
upperneck 16.5563 -6.22076 1.8916
head 5.30729 -3.23562 0.914973
rclavicle 5.23735e-014 8.34896e-015
rhumerus -55.1214 -3.71187 -64.4333
rradius 70.3594
rwrist -2.40952
rhand -14.6758 -43.8082
rfingers 7.12502
rthumb 11.4774 -73.474
lclavicle 5.23735e-014 8.34896e-015
lhumerus -72.8514 7.62111 66.1473
lradius 86.0272
lwrist -0.358706
lhand -30.812 -15.3539
lfingers 7.12502
lthumb -4.10161 14.5863
rfemur -12.3795 4.16811 19.1936
rtibia 14.3852
rfoot -22.4635 -32.3739
rtoes 28.4577
lfemur -19.6504 -14.3982 -8.19051
ltibia 47.9332
lfoot -5.58497 4.72551
ltoes 19.6028
1144
root 12.1867 16.4122 -2.14294 -355.312 -57.4641 364.913
lowerback -4.35934 3.99739 -4.75028
upperback -4.32612 5.36254 -1.78959
thorax -2.29494 2.75511 0.911697
lowerneck -0.734679 -4.48567 -4.16571
upperneck 16.659 -6.36594 2.09551
head 5.33657 -3.31356 1.01916
rclavicle 1.57661e-014 7.15625e-015
rhumerus -54.8798 -3.54429 -64.2621
rradius 70.5636
rwrist -2.54133
rhand -14.7734 -43.6452
rfingers 7.12502
rthumb 11.3833 -73.3163
lclavicle 1.57661e-014 7.15625e-015
lhumerus -73.2204 7.38101 65.6878
lradius 86.5955
lwrist -0.355107
lhand -30.9179 -15.1242
lfingers 7.12502
lthumb -4.20387 14.814
rfemur -12.5266 4.34063 18.9852
rtibia 14.5602
rfoot -23.0477 -32.2863
rtoes 29.5053
lfemur -19.1985 -14.8178 -7.99501
ltibia 46.7387
lfoot -5.6617 4.32722
ltoes 20.1286
1145
root 12.2463 16.4056 -2.10517 -355.147 -56.9925 364.867
lowerback -4.61223 3.99523 -4.72384
upperback -4.36252 5.37211 -1.77693
thorax -2.191 2.75785 0.928533
lowerneck -0.500859 -4.64688 -3.98541
upperneck 16.5259 -6.56089 1.83176
head 5.24797 -3.41542 0.905782
rclavicle 6.67295e-014 1.78906e-014
rhumerus -54.6835 -3.43076 -64.0651
rradius 70.8305
rwrist -2.56157
rhand -15.0735 -43.7181
rfingers 7.12502
rthumb 11.0939 -73.4048
lclavicle 6.67295e-014 1.78906e-014
lhumerus -73.4684 7.15079 65.3018
lradius 87.1409
lwrist -0.0983488
lhand -31.1863 -14.8028
lfingers 7.12502
lthumb -4.46305 15.1302
rfemur -12.8031 4.26359 18.7098
rtibia 14.7994
rfoot -23.3853 -32.1346
rtoes 30.2133
lfemur -18.8723 -15.2453 -7.85572
ltibia 45.5219
lfoot -5.71981 3.8996
ltoes 21.0147
